HIERARCHY
ROOT hip
{
	OFFSET 0.000000 0.000000 0.000000 
	CHANNELS 6 Xposition Yposition Zposition Zrotation Xrotation Yrotation
	JOINT abdomen
	{
		OFFSET 0.000000 3.402643 0.000000 
		CHANNELS 3 Zrotation Xrotation Yrotation
		JOINT chest
		{
			OFFSET 0.000000 8.438565 -0.680529 
			CHANNELS 3 Zrotation Xrotation Yrotation
			JOINT neck
			{
				OFFSET 0.000000 10.207942 -0.272212 
				CHANNELS 3 Zrotation Xrotation Yrotation
				JOINT head
				{
					OFFSET 0.000000 3.130431 0.000000 
					CHANNELS 3 Zrotation Xrotation Yrotation
					End Site
					{
						OFFSET 0.000000 3.130435 0.000000 
					}
				}
			}
			JOINT lCollar
			{
				OFFSET 3.470700 6.669187 -0.816635 
				CHANNELS 3 Zrotation Xrotation Yrotation
				JOINT lShldr
				{
					OFFSET 3.198488 0.000000 0.000000 
					CHANNELS 3 Zrotation Xrotation Yrotation
					JOINT lForeArm
					{
						OFFSET 10.139888 0.000000 0.000000 
						CHANNELS 3 Zrotation Xrotation Yrotation
						JOINT lHand
						{
							OFFSET 8.370511 0.000000 0.000000 
							CHANNELS 3 Zrotation Xrotation Yrotation
							End Site
							{
								OFFSET 4.083176 0.000000 0.000000 
							}
						}
					}
				}
			}
			JOINT rCollar
			{
				OFFSET -3.470700 6.669187 -0.816635 
				CHANNELS 3 Zrotation Xrotation Yrotation
				JOINT rShldr
				{
					OFFSET -3.198488 0.000000 0.000000 
					CHANNELS 3 Zrotation Xrotation Yrotation
					JOINT rForeArm
					{
						OFFSET -10.139888 0.000000 0.000000 
						CHANNELS 3 Zrotation Xrotation Yrotation
						JOINT rHand
						{
							OFFSET -8.370511 0.000000 0.000000 
							CHANNELS 3 Zrotation Xrotation Yrotation
							End Site
							{
								OFFSET -4.083176 0.000000 0.000000 
							}
						}
					}
				}
			}
		}
	}
	JOINT lThigh
	{
		OFFSET 5.308129 -1.633274 1.361059 
		CHANNELS 3 Zrotation Xrotation Yrotation
		JOINT lShin
		{
			OFFSET -2.041588 -20.007561 0.000000 
			CHANNELS 3 Zrotation Xrotation Yrotation
			JOINT lFoot
			{
				OFFSET 0.000000 -19.190928 -1.224953 
				CHANNELS 3 Zrotation Xrotation Yrotation
				End Site
				{
					OFFSET 0.000000 -2.449906 4.627600 
				}
			}
		}
	}
	JOINT rThigh
	{
		OFFSET -5.308129 -1.633274 1.361059 
		CHANNELS 3 Zrotation Xrotation Yrotation
		JOINT rShin
		{
			OFFSET 2.041588 -20.007561 0.000000 
			CHANNELS 3 Zrotation Xrotation Yrotation
			JOINT rFoot
			{
				OFFSET 0.000000 -19.190928 -1.224953 
				CHANNELS 3 Zrotation Xrotation Yrotation
				End Site
				{
					OFFSET 0.000000 -2.449906 4.627600 
				}
			}
		}
	}
}
MOTION
Frames: 15
Frame Time: 0.033333
0.073094 46.108459 0.864297 -0.000000 -0.000010 -0.000000 1.725441 5.046555 0.200031 0.488920 2.929578 -1.528893 13.340324 7.547115 -6.481193 2.564313 17.805550 -1.477969 -22.089907 -4.295482 8.600786 -62.002865 15.679211 2.495248 -3.771428 1.618438 -4.115614 5.677464 5.168845 -16.598351 20.429590 -2.995879 -5.938312 64.497490 16.576637 -15.861002 7.495293 3.073445 15.180175 -14.838100 3.737029 18.001692 4.139532 -15.859322 1.501680 -4.631540 34.410442 -0.163940 0.296291 -18.983471 0.901489 -5.329285 -15.867744 -1.274936 4.381557 34.421917 -0.104119 0.336032 -19.032261 -1.772123 
0.006511 46.390347 0.865670 -0.000000 -0.000010 -0.000000 1.666175 4.870996 0.180747 0.430160 2.685474 -1.553358 8.578435 5.736317 -5.305727 2.399283 19.905785 -1.666926 -20.741899 -3.758342 8.079098 -64.196465 15.103797 -1.284616 -2.355109 1.590132 0.288303 4.991163 4.681879 -16.941721 17.823196 -2.487553 -5.642670 65.901314 16.356237 -15.046254 7.707610 3.179386 16.272478 -13.889428 3.754985 16.526501 4.151948 -14.881155 1.349606 -4.567709 32.339840 -0.121241 0.209535 -17.840855 0.900931 -5.132652 -14.872629 -1.792020 4.019260 32.393654 0.036642 0.282651 -18.002689 -1.230055 
-0.057919 46.730312 0.863266 -0.000000 -0.000010 -0.000000 1.607162 4.783283 0.168682 0.351893 2.480424 -1.646029 0.675444 3.964566 -3.523265 2.385207 20.345137 -2.020721 -19.076427 -3.386758 8.054419 -66.094025 15.165721 0.374366 -2.931764 1.658660 -1.375421 6.183590 4.483461 -16.938883 15.385229 -2.119635 -5.677196 67.329384 16.214701 -14.188787 8.014236 3.318191 17.348553 -13.007548 3.980108 15.051400 4.105768 -13.468165 1.246489 -4.325866 29.324228 -0.116147 0.000032 -16.179899 0.701268 -4.888662 -13.463219 -1.641329 3.794446 29.396717 0.099457 0.300041 -16.402872 -1.331336 
-0.084515 46.888710 0.836591 -0.000000 -0.000010 -0.000000 1.558096 4.754112 0.134506 0.263893 2.343729 -1.709966 -7.092493 3.382176 -1.444663 2.412409 19.398142 -1.982909 -17.640596 -3.123029 8.280045 -67.588623 15.508277 4.631878 -4.459766 1.906555 -5.988215 8.206612 4.436991 -16.692888 12.971849 -1.791465 -5.880754 68.587425 16.132061 -13.418513 8.313198 3.457452 18.239225 -12.269062 4.294288 13.767838 4.073578 -12.840973 1.221700 -4.176307 27.980057 -0.204303 -0.173469 -15.586338 0.698856 -4.805799 -12.840303 -0.988589 3.792562 27.953382 -0.033947 0.443904 -15.548731 -1.727499 
-0.029109 46.671062 0.776036 -0.000000 -0.000010 -0.000000 1.509078 4.744451 0.041425 0.175927 2.333973 -1.667320 -11.794795 5.067065 1.349557 2.344359 17.456968 -1.259900 -16.907753 -2.991035 8.453210 -68.659966 15.748710 8.109071 -5.691198 2.283278 -9.797485 9.793931 4.427008 -16.443460 10.509240 -1.473664 -6.068063 69.500938 16.090160 -12.865633 8.512932 3.560552 18.844593 -11.735518 4.516186 12.886499 4.092678 -13.859539 1.276678 -4.368903 29.948633 -0.153199 0.025196 -16.401999 0.769236 -4.967439 -13.851502 -1.680915 3.814909 29.955540 0.096944 0.315981 -16.534540 -1.255984 
0.155440 46.272224 0.729135 -0.000000 -0.000010 -0.000000 1.479701 4.754280 -0.034527 0.107518 2.421873 -1.596340 -15.317660 8.472024 5.445557 2.186708 14.277132 -1.476654 -16.677540 -2.940377 8.538277 -69.306839 15.877138 10.319626 -6.451148 2.625796 -12.214862 10.801603 4.419685 -16.246569 8.822635 -1.257014 -6.175841 70.005707 16.063505 -12.538047 8.597123 3.612231 19.118938 -11.389846 4.638223 12.402090 3.969512 -15.437121 1.451700 -4.519185 33.103138 -0.193139 0.345781 -17.985443 0.895600 -5.390244 -15.469275 -1.874008 4.069797 33.254463 0.014133 0.533099 -18.228369 -1.100357 
0.490718 45.933445 0.740093 -0.000000 -0.000010 -0.000000 1.489543 4.783544 -0.036100 0.117303 2.539059 -1.538399 -20.022545 12.587612 11.178147 2.031721 9.818164 -4.066956 -16.618635 -2.936003 8.578302 -69.593330 15.930798 11.502119 -6.844681 2.821166 -13.477872 11.350662 4.407036 -16.123453 8.678038 -1.229198 -6.226501 70.086060 16.069820 -12.406091 8.587401 3.610288 19.071367 -11.127940 4.668822 12.286380 3.617296 -16.680923 1.511324 -4.764279 35.792244 -0.183127 0.776276 -19.464153 1.273605 -5.983377 -16.721306 -2.040304 4.276824 35.957146 -0.029887 0.820925 -19.624693 -0.988085 
0.893110 45.692169 0.782633 -0.000000 -0.000010 -0.000000 1.528896 4.842035 0.027167 0.166197 2.675768 -1.501871 -25.200109 16.669142 17.488003 1.883629 5.485334 -7.709099 -16.742393 -2.967407 8.582061 -69.573845 15.963337 11.992363 -6.996921 2.898689 -13.978613 11.638676 4.415718 -16.077806 9.736485 -1.344476 -6.207808 69.680725 16.090864 -12.407431 8.504994 3.554406 18.767950 -10.862026 4.615140 12.621224 3.119827 -17.400475 1.518224 -4.947670 37.428276 -0.082932 1.385635 -20.395422 1.489080 -6.653431 -17.478706 -2.153563 4.422359 37.672207 -0.041216 1.417344 -20.593594 -0.743949 
1.252703 45.534901 0.812864 -0.000000 -0.000010 -0.000000 1.558455 4.910303 0.100945 0.215101 2.802716 -1.485090 -29.214643 20.335749 22.360464 1.770111 3.064945 -10.426405 -17.106953 -3.043084 8.537393 -69.324188 15.974429 12.135489 -7.059477 2.929382 -14.148946 11.867789 4.420581 -16.108326 11.354372 -1.559304 -6.127305 68.704193 16.124657 -12.450314 8.341187 3.466097 18.285849 -10.469790 4.442546 13.455267 2.634827 -17.800661 1.501055 -5.039711 38.343067 -0.082942 2.013976 -20.937403 1.839816 -7.223187 -17.894480 -1.621516 4.614279 38.619499 -0.180415 2.021607 -21.226799 -0.952834 
1.484372 45.447392 0.797296 -0.000000 -0.000010 -0.000000 1.548791 4.968894 0.129491 0.244452 2.890603 -1.467404 -30.675522 23.648388 23.833172 1.693190 3.806936 -10.708156 -17.768732 -3.182996 8.450575 -68.932602 15.996499 12.218262 -7.128960 2.930213 -14.323828 12.149091 4.420249 -16.176094 12.998789 -1.808921 -5.975240 67.145706 16.171732 -12.463510 8.135481 3.352453 17.718470 -9.880956 4.151503 14.826001 2.330975 -18.094189 1.510513 -5.061371 38.895657 0.015785 2.380324 -21.189724 1.864243 -7.597502 -18.221498 -1.730565 4.580091 39.261955 -0.159363 2.371548 -21.513723 -0.763139 
1.602179 45.412487 0.744090 -0.000000 -0.000010 -0.000000 1.519519 5.027534 0.140244 0.244463 2.939428 -1.448082 -29.969732 26.743528 22.232355 1.662405 6.891658 -9.008124 -18.604826 -3.350250 8.335992 -68.443871 16.020451 12.301178 -7.218488 2.956763 -14.561112 12.529386 4.398439 -16.277384 14.516422 -2.060194 -5.775926 65.232216 16.229549 -12.457030 7.921425 3.234494 17.111912 -9.118407 3.784910 16.526579 2.168207 -18.241829 1.488063 -5.114771 39.105255 -0.001291 2.558223 -21.282694 2.051416 -7.790071 -18.396854 -1.798351 4.658016 39.480579 -0.188829 2.593757 -21.553352 -0.637057 
1.644971 45.412296 0.671811 -0.000000 -0.000010 -0.000000 1.470614 5.076458 0.123750 0.234692 2.978496 -1.437935 -27.948210 29.544559 18.723335 1.720918 10.971732 -6.294136 -19.480921 -3.517081 8.209153 -67.938301 16.055872 12.384846 -7.237545 2.944196 -14.794148 12.901739 4.388952 -16.390766 15.860622 -2.287034 -5.579640 63.265289 16.280409 -12.439919 7.723757 3.129336 16.513151 -8.317073 3.425761 18.275522 2.108057 -18.334057 1.522118 -5.070244 39.010513 -0.047490 2.574023 -21.054127 1.974536 -7.857776 -18.486300 -2.363619 4.574719 39.497105 -0.119103 2.439210 -21.365551 -0.216185 
1.651601 45.428921 0.599030 -0.000000 -0.000010 -0.000000 1.421680 5.115623 0.107825 0.205359 2.998031 -1.416991 -25.584288 31.833851 14.739414 1.877975 14.709237 -3.553176 -20.261620 -3.660685 8.104588 -67.453911 16.080925 12.447523 -7.166158 2.901520 -14.985415 13.241230 4.379310 -16.490362 16.953606 -2.477666 -5.408381 61.544872 16.328690 -12.432838 7.599921 3.050082 15.948729 -7.581693 3.098833 19.844397 2.087983 -18.398211 1.484426 -5.101767 38.932396 0.079386 2.624475 -20.904142 1.979987 -7.857818 -18.528940 -1.822560 4.598562 39.349720 -0.195571 2.601914 -21.298929 -0.609841 
1.654379 45.447475 0.540823 -0.000000 -0.000010 -0.000000 1.372719 5.145017 0.081954 0.166245 3.007802 -1.414973 -23.758711 33.467388 11.649114 2.144645 17.010256 -1.564820 -20.839659 -3.770538 8.019179 -67.056381 16.114103 12.500555 -6.957457 2.824055 -15.096878 13.507320 4.359922 -16.564768 17.766577 -2.615496 -5.300831 60.294765 16.344585 -12.454264 7.582512 3.021051 15.456460 -7.023806 2.868086 20.990467 2.087983 -18.398211 1.484426 -5.094417 38.824112 0.057082 2.617731 -20.787321 1.969098 -7.858096 -18.539234 -2.370546 4.531229 39.216469 -0.112090 2.464848 -21.024086 -0.229286 
1.659380 45.465061 0.497886 -0.000000 -0.000010 -0.000000 1.333540 5.164622 0.065709 0.127128 3.007810 -1.403133 -22.578833 34.498684 9.649201 2.514413 17.903769 -0.363275 -21.215233 -3.844548 7.953477 -66.744438 16.149830 12.543593 -6.614788 2.692626 -15.154004 13.680004 4.347660 -16.609667 18.337193 -2.714689 -5.246615 59.510468 16.351074 -12.505662 7.657094 3.023959 15.037433 -6.653554 2.709641 21.750185 2.076558 -18.358011 1.507356 -5.061120 38.646908 -0.053545 2.638441 -20.631985 2.029670 -7.879133 -18.539230 -2.394943 4.561837 39.113400 -0.074527 2.428424 -20.927296 -0.263058 
